<?xml version="1.0" encoding="UTF-8" standalone="no"?>
<!-- Created with Inkscape (http://www.inkscape.org/) -->

<svg
   xmlns:dc="http://purl.org/dc/elements/1.1/"
   xmlns:cc="http://creativecommons.org/ns#"
   xmlns:rdf="http://www.w3.org/1999/02/22-rdf-syntax-ns#"
   xmlns:svg="http://www.w3.org/2000/svg"
   xmlns="http://www.w3.org/2000/svg"
   xmlns:sodipodi="http://sodipodi.sourceforge.net/DTD/sodipodi-0.dtd"
   xmlns:inkscape="http://www.inkscape.org/namespaces/inkscape"
   width="94.909569mm"
   height="14.842248mm"
   viewBox="0 0 94.909569 14.842248"
   version="1.1"
   id="svg3800"
   sodipodi:docname="logo--reDesign.svg"
   inkscape:version="0.92.2 (5c3e80d, 2017-08-06)">
  <defs
     id="defs3794">
    <clipPath
       clipPathUnits="userSpaceOnUse"
       id="clipPath18">
      <path
         d="M 0,0 H 337.917 V 53.25 H 0 Z"
         id="path16"
         inkscape:connector-curvature="0" />
    </clipPath>
    <clipPath
       clipPathUnits="userSpaceOnUse"
       id="clipPath18-2">
      <path
         d="M 0,0 H 337.917 V 53.25 H 0 Z"
         id="path16-3"
         inkscape:connector-curvature="0" />
    </clipPath>
    <clipPath
       clipPathUnits="userSpaceOnUse"
       id="clipPath18-1">
      <path
         d="M 0,0 H 337.917 V 53.25 H 0 Z"
         id="path16-1"
         inkscape:connector-curvature="0" />
    </clipPath>
  </defs>
  <sodipodi:namedview
     id="base"
     pagecolor="#ffffff"
     bordercolor="#666666"
     borderopacity="1.0"
     inkscape:pageopacity="0.0"
     inkscape:pageshadow="2"
     inkscape:zoom="1.4"
     inkscape:cx="224.99646"
     inkscape:cy="-26.389248"
     inkscape:document-units="mm"
     inkscape:current-layer="layer1"
     showgrid="false"
     inkscape:window-width="1920"
     inkscape:window-height="1027"
     inkscape:window-x="-8"
     inkscape:window-y="-8"
     inkscape:window-maximized="1" />
  <metadata
     id="metadata3797">
    <rdf:RDF>
      <cc:Work
         rdf:about="">
        <dc:format>image/svg+xml</dc:format>
        <dc:type
           rdf:resource="http://purl.org/dc/dcmitype/StillImage" />
        <dc:title></dc:title>
      </cc:Work>
    </rdf:RDF>
  </metadata>
  <g
     inkscape:label="Layer 1"
     inkscape:groupmode="layer"
     id="layer1"
     transform="translate(-19.304778,-178.41374)">
    <g
       transform="matrix(0.28117347,0,0,-0.28117347,19.250343,193.30112)"
       id="g12">
      <g
         id="g14"
         clip-path="url(#clipPath18-1)">
        <g
           id="g20"
           transform="translate(257.8087,17.9185)">
          <path
             d="m 0,0 c 0,-3.296 -0.428,-5.664 -1.287,-7.103 -0.744,-1.3 -1.911,-2.362 -3.499,-3.186 -1.591,-0.825 -3.326,-1.236 -5.205,-1.236 -1.765,0 -3.193,0.505 -4.283,1.514 -1.093,1.011 -1.639,2.234 -1.639,3.674 0,1.392 0.465,2.478 1.393,3.256 0.93,0.777 1.904,1.299 2.925,1.566 1.022,0.267 2.861,0.685 5.52,1.254 C -3.417,0.307 -1.393,0.847 0,1.358 Z M 3.689,0.368 C 2.956,1.226 2.958,2.469 3.694,3.325 l 4.819,5.602 0.629,0.732 c -0.221,2.008 -0.641,3.734 -1.29,5.139 -0.987,2.136 -2.676,3.696 -5.066,4.684 -2.39,0.986 -5.676,1.479 -9.853,1.479 -3.739,0 -6.86,-0.51 -9.367,-1.531 -2.508,-1.023 -4.353,-2.322 -5.537,-3.901 -1.182,-1.578 -1.775,-3.203 -1.775,-4.874 0,-1.068 0.388,-1.945 1.166,-2.629 0.778,-0.685 1.7,-1.027 2.769,-1.027 1.184,0 1.955,0.214 2.315,0.644 0.359,0.43 0.976,1.317 1.845,2.663 0.871,1.347 1.915,2.356 3.134,3.03 1.219,0.673 3.034,1.01 5.45,1.01 2.808,0 4.658,-0.587 5.553,-1.759 C -0.62,11.415 -0.115,9.575 0,7.069 -1.997,6.487 -3.847,5.994 -5.553,5.589 -7.259,5.182 -9.309,4.736 -11.699,4.248 -14.09,3.76 -15.587,3.447 -16.191,3.308 c -2.877,-0.627 -5.141,-1.857 -6.788,-3.691 -1.649,-1.833 -2.473,-4.051 -2.473,-6.651 0,-1.926 0.5,-3.713 1.497,-5.362 0.998,-1.648 2.42,-2.954 4.265,-3.916 1.846,-0.963 3.988,-1.446 6.424,-1.446 2.671,0 5.079,0.447 7.226,1.341 2.147,0.893 4.369,2.234 6.668,4.021 1.067,-1.74 2.077,-3.07 3.029,-3.986 0.952,-0.917 1.915,-1.376 2.89,-1.376 1.161,0 2.198,0.4 3.117,1.201 0.915,0.802 1.375,1.69 1.375,2.664 0,0.557 -0.297,1.805 -0.888,3.743 -0.406,1.328 -0.662,2.618 -0.789,3.876 l -0.857,1.003 z"
             style="fill:#333c42;fill-opacity:1;fill-rule:nonzero;stroke:none"
             id="path22"
             inkscape:connector-curvature="0" />
        </g>
        <g
           id="g24"
           transform="translate(280.4397,0.6564)">
          <path
             d="m 0,0 55.965,-0.098 h 0.002 c 0.702,0 1.271,0.568 1.273,1.27 l 0.062,35.614 c 10e-4,0.702 -0.568,1.273 -1.27,1.274 L 0.067,38.158 H 0.064 c -0.37,0 -0.722,-0.161 -0.964,-0.442 l -10.476,-12.179 -4.818,-5.602 c -0.409,-0.476 -0.411,-1.178 -0.003,-1.655 L -11.381,12.641 -0.965,0.446 C -0.724,0.164 -0.371,0.001 0,0"
             style="fill:#dc143c;fill-opacity:1;fill-rule:nonzero;stroke:none"
             id="path26"
             inkscape:connector-curvature="0" />
        </g>
        <g
           id="g28"
           transform="translate(283.1474,24.2366)">
          <path
             d="M 0,0 0.026,3.675 C 0.028,3.988 0.1,4.222 0.242,4.377 0.384,4.533 0.569,4.61 0.799,4.608 1.039,4.606 1.228,4.527 1.368,4.369 1.508,4.212 1.576,3.977 1.574,3.664 L 1.548,-0.094 c -0.003,-0.428 0.042,-0.785 0.135,-1.073 0.094,-0.287 0.262,-0.511 0.504,-0.67 0.242,-0.16 0.582,-0.242 1.02,-0.245 0.605,-0.004 1.033,0.154 1.286,0.473 0.252,0.32 0.381,0.807 0.385,1.46 l 0.027,3.79 C 4.907,3.957 4.979,4.192 5.119,4.346 5.259,4.499 5.445,4.575 5.678,4.574 5.911,4.572 6.099,4.493 6.242,4.338 6.385,4.182 6.456,3.946 6.453,3.63 L 6.428,-0.045 C 6.423,-0.643 6.362,-1.141 6.242,-1.54 6.123,-1.939 5.901,-2.288 5.576,-2.588 5.296,-2.844 4.971,-3.029 4.602,-3.145 4.233,-3.26 3.801,-3.316 3.308,-3.313 2.721,-3.309 2.215,-3.242 1.792,-3.112 1.369,-2.982 1.025,-2.783 0.759,-2.516 0.493,-2.248 0.299,-1.906 0.177,-1.49 0.055,-1.073 -0.004,-0.577 0,0"
             style="fill:#ffffff;fill-opacity:1;fill-rule:nonzero;stroke:none"
             id="path30"
             inkscape:connector-curvature="0" />
        </g>
        <g
           id="g32"
           transform="translate(293.8625,27.482)">
          <path
             d="m 0,0 -1.043,0.007 -0.016,-2.335 1.043,-0.007 c 0.364,-0.003 0.67,0.033 0.915,0.108 0.246,0.075 0.433,0.198 0.563,0.371 0.13,0.173 0.196,0.4 0.198,0.682 0.002,0.337 -0.095,0.612 -0.291,0.826 C 1.148,-0.121 0.692,-0.005 0,0 m 0.351,-3.506 -1.418,0.01 -0.015,-2.163 c -0.003,-0.309 -0.077,-0.543 -0.224,-0.702 -0.147,-0.159 -0.332,-0.238 -0.555,-0.236 -0.232,0.001 -0.42,0.082 -0.561,0.241 -0.141,0.159 -0.211,0.392 -0.209,0.697 l 0.042,5.891 c 0.002,0.341 0.082,0.583 0.239,0.728 0.158,0.145 0.407,0.216 0.747,0.214 L 0.384,1.16 C 0.971,1.156 1.422,1.107 1.738,1.015 2.05,0.926 2.319,0.78 2.545,0.576 2.772,0.373 2.943,0.125 3.059,-0.167 3.175,-0.46 3.232,-0.789 3.229,-1.154 3.224,-1.932 2.98,-2.521 2.497,-2.919 2.015,-3.317 1.299,-3.512 0.351,-3.506"
             style="fill:#ffffff;fill-opacity:1;fill-rule:nonzero;stroke:none"
             id="path34"
             inkscape:connector-curvature="0" />
        </g>
        <g
           id="g36"
           transform="translate(303.9361,24.7733)">
          <path
             d="M 0,0 C 0.004,0.56 -0.083,1.045 -0.261,1.456 -0.439,1.868 -0.695,2.18 -1.028,2.392 -1.362,2.605 -1.746,2.713 -2.181,2.716 -2.49,2.718 -2.776,2.662 -3.04,2.547 -3.303,2.433 -3.53,2.265 -3.721,2.044 -3.912,1.823 -4.063,1.54 -4.175,1.195 -4.287,0.85 -4.345,0.462 -4.348,0.031 c -0.003,-0.435 0.049,-0.828 0.156,-1.18 0.107,-0.351 0.26,-0.644 0.458,-0.876 0.198,-0.233 0.427,-0.407 0.685,-0.524 0.258,-0.116 0.541,-0.175 0.851,-0.178 0.396,-0.002 0.761,0.094 1.094,0.29 0.333,0.196 0.599,0.5 0.799,0.912 C -0.106,-1.113 -0.004,-0.605 0,0 M -2.172,3.946 C -1.38,3.94 -0.701,3.775 -0.135,3.449 0.431,3.124 0.858,2.664 1.146,2.069 1.434,1.475 1.575,0.778 1.569,-0.021 1.565,-0.612 1.481,-1.149 1.318,-1.631 1.155,-2.113 0.912,-2.53 0.59,-2.882 c -0.323,-0.352 -0.717,-0.62 -1.184,-0.805 -0.467,-0.184 -1.001,-0.274 -1.603,-0.27 -0.597,0.004 -1.132,0.104 -1.603,0.301 -0.471,0.196 -0.864,0.471 -1.178,0.824 -0.313,0.353 -0.549,0.777 -0.708,1.272 -0.158,0.494 -0.235,1.028 -0.231,1.602 0.004,0.587 0.093,1.125 0.265,1.614 0.172,0.489 0.419,0.904 0.741,1.246 0.322,0.342 0.713,0.602 1.173,0.781 0.46,0.18 0.982,0.267 1.566,0.263"
             style="fill:#ffffff;fill-opacity:1;fill-rule:nonzero;stroke:none"
             id="path38"
             inkscape:connector-curvature="0" />
        </g>
        <g
           id="g40"
           transform="translate(309.814,27.3698)">
          <path
             d="m 0,0 -1.428,0.01 -0.015,-2.101 1.387,-0.01 c 0.371,-0.002 0.684,0.028 0.939,0.09 0.254,0.063 0.448,0.171 0.583,0.325 0.135,0.153 0.203,0.366 0.205,0.637 C 1.673,-0.837 1.62,-0.65 1.514,-0.488 1.407,-0.325 1.258,-0.203 1.068,-0.122 0.888,-0.044 0.532,-0.004 0,0 m -0.909,-3.205 -0.542,0.004 -0.017,-2.455 c -0.002,-0.324 -0.075,-0.561 -0.219,-0.713 -0.144,-0.152 -0.33,-0.227 -0.559,-0.226 -0.247,0.002 -0.438,0.083 -0.572,0.244 -0.135,0.161 -0.201,0.396 -0.198,0.705 l 0.041,5.881 c 0.002,0.333 0.079,0.574 0.229,0.723 0.151,0.148 0.393,0.221 0.726,0.219 L 0.498,1.159 C 0.846,1.157 1.143,1.14 1.389,1.108 1.636,1.077 1.858,1.016 2.055,0.924 2.294,0.821 2.505,0.676 2.688,0.487 2.871,0.298 3.009,0.079 3.103,-0.17 3.197,-0.42 3.243,-0.683 3.241,-0.961 3.237,-1.531 3.073,-1.985 2.749,-2.324 2.425,-2.662 1.936,-2.9 1.282,-3.038 1.555,-3.186 1.816,-3.403 2.065,-3.69 2.313,-3.977 2.534,-4.281 2.728,-4.604 2.922,-4.927 3.073,-5.218 3.181,-5.478 3.288,-5.738 3.342,-5.916 3.341,-6.013 3.34,-6.114 3.307,-6.214 3.242,-6.313 3.178,-6.411 3.089,-6.489 2.978,-6.545 2.866,-6.602 2.737,-6.63 2.591,-6.629 2.417,-6.627 2.272,-6.585 2.154,-6.503 2.037,-6.42 1.936,-6.316 1.851,-6.191 1.767,-6.065 1.653,-5.88 1.509,-5.636 l -0.613,1.037 c -0.22,0.38 -0.417,0.67 -0.591,0.869 -0.174,0.2 -0.351,0.337 -0.532,0.411 -0.18,0.074 -0.407,0.112 -0.682,0.114"
             style="fill:#ffffff;fill-opacity:1;fill-rule:nonzero;stroke:none"
             id="path42"
             inkscape:connector-curvature="0" />
        </g>
        <g
           id="g44"
           transform="translate(319.562,27.2699)">
          <path
             d="m 0,0 -3.487,0.025 -0.014,-1.877 3.212,-0.023 C -0.053,-1.876 0.123,-1.931 0.239,-2.037 0.354,-2.144 0.411,-2.285 0.41,-2.458 0.409,-2.632 0.351,-2.773 0.235,-2.882 0.12,-2.991 -0.058,-3.044 -0.298,-3.042 L -3.509,-3.02 -3.524,-5.194 0.083,-5.219 C 0.326,-5.221 0.509,-5.278 0.632,-5.392 0.755,-5.506 0.815,-5.657 0.814,-5.844 0.813,-6.025 0.75,-6.172 0.626,-6.284 0.502,-6.396 0.318,-6.451 0.075,-6.449 l -4.207,0.029 c -0.337,0.003 -0.579,0.079 -0.726,0.23 -0.147,0.15 -0.219,0.392 -0.216,0.726 l 0.04,5.744 c 0.002,0.223 0.036,0.404 0.103,0.545 0.067,0.14 0.171,0.242 0.312,0.305 0.141,0.063 0.322,0.094 0.54,0.093 L 0.008,1.194 C 0.255,1.192 0.438,1.136 0.557,1.026 0.676,0.915 0.735,0.772 0.734,0.594 0.733,0.414 0.672,0.269 0.551,0.16 0.43,0.052 0.247,-0.002 0,0"
             style="fill:#ffffff;fill-opacity:1;fill-rule:nonzero;stroke:none"
             id="path46"
             inkscape:connector-curvature="0" />
        </g>
        <g
           id="g48"
           transform="translate(323.2056,27.213)">
          <path
             d="m 0,0 -0.036,-5.187 1.172,-0.008 c 0.258,-0.002 0.459,0.004 0.605,0.016 0.146,0.013 0.298,0.047 0.455,0.102 0.156,0.054 0.292,0.131 0.408,0.231 0.521,0.435 0.785,1.187 0.792,2.257 0.006,0.754 -0.104,1.32 -0.329,1.697 -0.225,0.377 -0.504,0.618 -0.837,0.723 -0.333,0.104 -0.736,0.158 -1.208,0.162 z M -0.591,1.229 1.427,1.215 C 1.951,1.211 2.401,1.16 2.776,1.06 3.15,0.96 3.49,0.775 3.794,0.505 4.585,-0.182 4.975,-1.22 4.965,-2.61 4.962,-3.069 4.919,-3.487 4.837,-3.866 4.754,-4.244 4.628,-4.585 4.459,-4.887 4.29,-5.19 4.075,-5.461 3.812,-5.699 3.606,-5.882 3.381,-6.028 3.137,-6.137 2.893,-6.247 2.631,-6.323 2.351,-6.366 2.071,-6.409 1.755,-6.43 1.404,-6.427 l -2.017,0.014 c -0.282,0.002 -0.494,0.046 -0.635,0.132 -0.142,0.086 -0.234,0.207 -0.277,0.362 -0.042,0.155 -0.062,0.356 -0.061,0.602 l 0.04,5.604 c 0.002,0.334 0.078,0.575 0.229,0.723 0.15,0.149 0.393,0.222 0.726,0.219"
             style="fill:#ffffff;fill-opacity:1;fill-rule:nonzero;stroke:none"
             id="path50"
             inkscape:connector-curvature="0" />
        </g>
        <g
           id="g52"
           transform="translate(329.5729,21.564)">
          <path
             d="M 0,0 0.042,6.021 C 0.045,6.334 0.117,6.568 0.261,6.723 0.405,6.879 0.589,6.955 0.815,6.954 1.048,6.952 1.236,6.874 1.379,6.718 1.522,6.562 1.593,6.326 1.591,6.01 L 1.548,-0.011 C 1.546,-0.327 1.472,-0.563 1.327,-0.718 1.182,-0.874 0.992,-0.951 0.76,-0.949 0.537,-0.947 0.354,-0.867 0.211,-0.708 0.068,-0.549 -0.002,-0.313 0,0"
             style="fill:#ffffff;fill-opacity:1;fill-rule:nonzero;stroke:none"
             id="path54"
             inkscape:connector-curvature="0" />
        </g>
        <g
           id="g56"
           transform="translate(309.0405,12.2765)">
          <path
             d="m 0,0 c -0.002,-0.243 -0.064,-0.506 -0.185,-0.788 -0.122,-0.283 -0.313,-0.56 -0.572,-0.831 -0.259,-0.271 -0.589,-0.49 -0.99,-0.657 -0.401,-0.168 -0.867,-0.25 -1.399,-0.246 -0.403,0.003 -0.769,0.044 -1.099,0.123 -0.329,0.078 -0.628,0.199 -0.896,0.363 -0.269,0.163 -0.515,0.378 -0.739,0.644 -0.2,0.241 -0.37,0.511 -0.51,0.809 -0.141,0.298 -0.245,0.616 -0.314,0.953 -0.069,0.338 -0.102,0.696 -0.099,1.075 0.004,0.615 0.097,1.165 0.28,1.651 0.182,0.485 0.441,0.899 0.777,1.243 0.336,0.343 0.729,0.604 1.179,0.781 0.449,0.178 0.928,0.265 1.435,0.261 0.619,-0.004 1.169,-0.131 1.65,-0.382 0.481,-0.25 0.849,-0.557 1.104,-0.922 C -0.123,3.712 0.003,3.368 0.001,3.045 -0.001,2.867 -0.064,2.711 -0.19,2.577 -0.316,2.442 -0.468,2.375 -0.645,2.377 -0.843,2.378 -0.992,2.426 -1.09,2.52 -1.188,2.615 -1.298,2.777 -1.418,3.008 -1.617,3.388 -1.852,3.673 -2.123,3.862 -2.395,4.052 -2.73,4.148 -3.13,4.151 -3.766,4.155 -4.274,3.917 -4.655,3.437 c -0.38,-0.48 -0.573,-1.165 -0.58,-2.055 -0.004,-0.594 0.076,-1.089 0.24,-1.485 0.164,-0.396 0.398,-0.692 0.703,-0.889 0.304,-0.196 0.662,-0.296 1.072,-0.299 0.444,-0.003 0.821,0.105 1.131,0.323 0.309,0.219 0.543,0.541 0.702,0.967 0.068,0.201 0.151,0.365 0.249,0.491 0.098,0.126 0.255,0.189 0.47,0.187 C -0.484,0.676 -0.326,0.611 -0.195,0.481 -0.064,0.351 0.001,0.191 0,0"
             style="fill:#ffffff;fill-opacity:1;fill-rule:nonzero;stroke:none"
             id="path58"
             inkscape:connector-curvature="0" />
        </g>
        <g
           id="g60"
           transform="translate(315.4965,16.2661)">
          <path
             d="m 0,0 -3.487,0.025 -0.014,-1.877 3.212,-0.023 C -0.053,-1.876 0.123,-1.931 0.239,-2.037 0.354,-2.144 0.411,-2.285 0.41,-2.458 0.409,-2.632 0.351,-2.773 0.235,-2.882 0.12,-2.991 -0.058,-3.044 -0.298,-3.042 L -3.509,-3.02 -3.524,-5.194 0.083,-5.219 C 0.326,-5.221 0.509,-5.278 0.632,-5.392 0.755,-5.506 0.815,-5.657 0.814,-5.844 0.813,-6.025 0.75,-6.172 0.626,-6.284 0.502,-6.396 0.318,-6.451 0.075,-6.449 l -4.207,0.029 c -0.337,0.003 -0.579,0.079 -0.726,0.23 -0.147,0.15 -0.219,0.392 -0.216,0.726 l 0.04,5.744 c 0.002,0.223 0.036,0.404 0.103,0.544 0.067,0.141 0.171,0.243 0.312,0.306 0.141,0.063 0.322,0.094 0.54,0.093 L 0.008,1.194 C 0.255,1.192 0.438,1.136 0.557,1.026 0.676,0.915 0.735,0.772 0.734,0.594 0.733,0.414 0.672,0.269 0.551,0.16 0.43,0.052 0.247,-0.002 0,0"
             style="fill:#ffffff;fill-opacity:1;fill-rule:nonzero;stroke:none"
             id="path62"
             inkscape:connector-curvature="0" />
        </g>
        <g
           id="g64"
           transform="translate(319.6018,16.6334)">
          <path
             d="M 0,0 2.945,-4.525 2.977,0.021 C 2.979,0.316 3.044,0.537 3.172,0.684 3.3,0.831 3.471,0.904 3.687,0.902 3.909,0.9 4.084,0.825 4.212,0.677 4.339,0.528 4.402,0.306 4.4,0.011 L 4.358,-6 C 4.353,-6.67 4.073,-7.004 3.517,-7 3.378,-6.999 3.253,-6.978 3.142,-6.937 3.031,-6.897 2.927,-6.832 2.83,-6.745 2.734,-6.657 2.644,-6.555 2.561,-6.438 2.479,-6.321 2.396,-6.201 2.314,-6.079 l -2.873,4.472 -0.031,-4.478 c -0.002,-0.292 -0.072,-0.512 -0.208,-0.66 -0.137,-0.149 -0.311,-0.222 -0.523,-0.221 -0.219,0.002 -0.394,0.078 -0.525,0.231 -0.131,0.152 -0.195,0.372 -0.193,0.66 l 0.041,5.896 c 0.002,0.25 0.031,0.447 0.088,0.589 0.067,0.156 0.177,0.283 0.331,0.38 0.153,0.098 0.319,0.147 0.496,0.146 C -0.944,0.935 -0.825,0.911 -0.726,0.865 -0.628,0.819 -0.541,0.758 -0.467,0.681 -0.393,0.604 -0.317,0.504 -0.24,0.382 -0.162,0.26 -0.082,0.133 0,0"
             style="fill:#ffffff;fill-opacity:1;fill-rule:nonzero;stroke:none"
             id="path66"
             inkscape:connector-curvature="0" />
        </g>
        <g
           id="g68"
           transform="translate(330.7287,16.159)">
          <path
             d="m 0,0 -3.487,0.025 -0.014,-1.877 3.212,-0.023 C -0.053,-1.876 0.123,-1.931 0.238,-2.037 0.354,-2.144 0.411,-2.285 0.41,-2.458 0.409,-2.632 0.351,-2.773 0.235,-2.882 0.12,-2.991 -0.058,-3.044 -0.298,-3.042 L -3.509,-3.02 -3.524,-5.194 0.083,-5.219 C 0.326,-5.221 0.509,-5.278 0.632,-5.392 0.755,-5.506 0.815,-5.657 0.814,-5.844 0.813,-6.025 0.75,-6.172 0.626,-6.284 0.501,-6.396 0.318,-6.451 0.075,-6.449 l -4.207,0.029 c -0.337,0.003 -0.579,0.079 -0.726,0.23 -0.147,0.15 -0.219,0.392 -0.216,0.726 l 0.04,5.744 c 0.002,0.223 0.036,0.404 0.103,0.544 0.067,0.141 0.171,0.243 0.312,0.306 0.141,0.063 0.322,0.094 0.54,0.093 L 0.008,1.194 C 0.255,1.192 0.438,1.136 0.557,1.026 0.676,0.915 0.735,0.772 0.734,0.594 0.733,0.414 0.672,0.269 0.551,0.16 0.43,0.052 0.247,-0.002 0,0"
             style="fill:#ffffff;fill-opacity:1;fill-rule:nonzero;stroke:none"
             id="path70"
             inkscape:connector-curvature="0" />
        </g>
        <g
           id="g72"
           transform="translate(277.0212,17.6415)">
          <path
             d="M 0,0 C 1.233,-0.002 2.218,0.979 2.22,2.212 2.222,3.445 1.24,4.43 0.008,4.432 -1.225,4.434 -2.21,3.452 -2.212,2.22 -2.214,0.987 -1.232,0.002 0,0"
             style="fill:#ffffff;fill-opacity:1;fill-rule:nonzero;stroke:none"
             id="path74"
             inkscape:connector-curvature="0" />
        </g>
        <g
           id="g76"
           transform="translate(55.7948,44.3247)">
          <path
             d="M 0,0 H -6.954 V -15.576 H 0 c 2.434,0 4.467,0.255 6.102,0.765 1.634,0.51 2.879,1.344 3.737,2.503 0.857,1.159 1.286,2.677 1.286,4.555 0,2.248 -0.66,4.079 -1.982,5.493 C 7.66,-0.754 4.612,0 0,0 m 2.503,-23.364 h -9.457 v -14.428 c 0,-2.063 -0.486,-3.628 -1.46,-4.693 -0.973,-1.066 -2.202,-1.6 -3.685,-1.6 -1.553,0 -2.805,0.528 -3.755,1.582 -0.95,1.055 -1.425,2.602 -1.425,4.642 V 1.425 c 0,2.272 0.521,3.894 1.564,4.868 1.043,0.973 2.7,1.46 4.972,1.46 H 2.503 c 3.917,0 6.93,-0.302 9.039,-0.904 2.086,-0.58 3.888,-1.542 5.406,-2.886 1.519,-1.344 2.672,-2.99 3.46,-4.937 0.788,-1.947 1.182,-4.137 1.182,-6.571 0,-5.192 -1.599,-9.126 -4.798,-11.803 -3.198,-2.677 -7.961,-4.016 -14.289,-4.016"
             style="fill:#333c42;fill-opacity:1;fill-rule:nonzero;stroke:none"
             id="path78"
             inkscape:connector-curvature="0" />
        </g>
        <g
           id="g80"
           transform="translate(127.3432,33.5817)">
          <path
             d="m 0,0 v -1.147 c 1.669,2.201 3.493,3.818 5.475,4.85 1.982,1.031 4.259,1.547 6.832,1.547 2.503,0 4.739,-0.545 6.71,-1.634 1.97,-1.09 3.441,-2.631 4.415,-4.624 0.627,-1.16 1.032,-2.411 1.217,-3.755 0.186,-1.345 0.279,-3.059 0.279,-5.146 V -27.57 c 0,-1.901 -0.435,-3.338 -1.304,-4.311 -0.869,-0.974 -1.999,-1.461 -3.39,-1.461 -1.414,0 -2.562,0.499 -3.442,1.496 -0.881,0.996 -1.32,2.421 -1.32,4.276 v 15.819 c 0,3.129 -0.435,5.522 -1.304,7.179 -0.869,1.657 -2.603,2.486 -5.198,2.486 -1.692,0 -3.234,-0.504 -4.624,-1.512 C 2.956,-4.607 1.935,-5.992 1.286,-7.753 0.823,-9.167 0.591,-11.81 0.591,-15.68 v -11.89 c 0,-1.924 -0.446,-3.367 -1.338,-4.329 -0.893,-0.961 -2.046,-1.443 -3.459,-1.443 -1.369,0 -2.492,0.499 -3.373,1.496 -0.881,0.996 -1.321,2.421 -1.321,4.276 v 27.431 c 0,1.808 0.393,3.158 1.182,4.05 0.788,0.892 1.865,1.339 3.233,1.339 0.834,0 1.587,-0.198 2.26,-0.591 C -1.553,4.264 -1.014,3.673 -0.609,2.886 -0.203,2.097 0,1.135 0,0"
             style="fill:#333c42;fill-opacity:1;fill-rule:nonzero;stroke:none"
             id="path82"
             inkscape:connector-curvature="0" />
        </g>
        <g
           id="g84"
           transform="translate(180.562,5.5944)">
          <path
             d="m 0,0 v 1.217 c -1.137,-1.438 -2.329,-2.642 -3.581,-3.616 -1.252,-0.974 -2.62,-1.698 -4.103,-2.173 -1.483,-0.475 -3.176,-0.713 -5.075,-0.713 -2.295,0 -4.352,0.476 -6.172,1.426 -1.819,0.95 -3.228,2.26 -4.224,3.929 -1.182,2.016 -1.773,4.913 -1.773,8.691 V 27.57 c 0,1.9 0.428,3.32 1.286,4.259 0.858,0.939 1.993,1.408 3.408,1.408 1.436,0 2.595,-0.475 3.476,-1.426 0.88,-0.95 1.322,-2.364 1.322,-4.241 V 12.377 c 0,-2.202 0.185,-4.05 0.556,-5.545 0.37,-1.495 1.036,-2.666 1.998,-3.512 0.962,-0.846 2.266,-1.269 3.912,-1.269 1.599,0 3.105,0.475 4.52,1.426 1.413,0.95 2.445,2.19 3.094,3.72 0.533,1.344 0.8,4.287 0.8,8.831 V 27.57 c 0,1.877 0.439,3.291 1.321,4.241 0.88,0.951 2.027,1.426 3.441,1.426 1.414,0 2.55,-0.469 3.408,-1.408 C 8.471,30.89 8.9,29.47 8.9,27.57 V 0.07 C 8.9,-1.738 8.489,-3.094 7.666,-3.998 6.842,-4.902 5.782,-5.354 4.485,-5.354 3.187,-5.354 2.114,-4.885 1.269,-3.946 0.423,-3.008 0,-1.692 0,0"
             style="fill:#333c42;fill-opacity:1;fill-rule:nonzero;stroke:none"
             id="path86"
             inkscape:connector-curvature="0" />
        </g>
        <g
           id="g88"
           transform="translate(201.8362,19.6053)">
          <path
             d="m 0,0 c 0,-2.573 0.4,-4.763 1.199,-6.571 0.8,-1.808 1.895,-3.17 3.286,-4.085 1.391,-0.916 2.909,-1.373 4.555,-1.373 1.668,0 3.192,0.434 4.572,1.304 1.378,0.869 2.479,2.201 3.302,3.998 0.823,1.796 1.234,4.038 1.234,6.727 0,2.526 -0.411,4.699 -1.234,6.519 -0.823,1.819 -1.936,3.21 -3.338,4.172 -1.402,0.961 -2.938,1.443 -4.606,1.443 -1.739,0 -3.291,-0.493 -4.659,-1.478 C 2.944,9.671 1.883,8.257 1.13,6.415 0.377,4.572 0,2.434 0,0 m 18.67,-13.941 v 0.938 c -1.275,-1.46 -2.532,-2.648 -3.772,-3.564 -1.24,-0.915 -2.585,-1.611 -4.033,-2.085 -1.449,-0.475 -3.031,-0.713 -4.746,-0.713 -2.272,0 -4.375,0.481 -6.31,1.443 -1.936,0.961 -3.611,2.335 -5.024,4.12 -1.414,1.784 -2.486,3.882 -3.216,6.292 -0.73,2.411 -1.095,5.018 -1.095,7.823 0,5.933 1.448,10.557 4.346,13.872 2.897,3.314 6.71,4.972 11.438,4.972 2.734,0 5.041,-0.47 6.919,-1.408 1.877,-0.939 3.707,-2.382 5.493,-4.329 v 14.011 c 0,1.947 0.388,3.419 1.164,4.415 0.777,0.996 1.883,1.496 3.321,1.496 1.436,0 2.543,-0.458 3.32,-1.374 0.777,-0.916 1.165,-2.266 1.165,-4.05 v -41.859 c 0,-1.808 -0.417,-3.164 -1.252,-4.068 -0.834,-0.904 -1.912,-1.356 -3.233,-1.356 -1.299,0 -2.37,0.469 -3.216,1.408 -0.847,0.939 -1.269,2.277 -1.269,4.016"
             style="fill:#333c42;fill-opacity:1;fill-rule:nonzero;stroke:none"
             id="path90"
             inkscape:connector-curvature="0" />
        </g>
        <g
           id="g92"
           transform="translate(20.9046,23.291)">
          <path
             d="m 0,0 c 3.162,2.799 4.743,5.579 4.743,8.34 0,0.999 -0.237,1.794 -0.711,2.385 -0.475,0.592 -1.173,0.888 -2.095,0.888 -1.714,0 -3.393,-0.73 -5.04,-2.189 C -4.75,7.965 -6.232,6.316 -7.55,4.476 -8.947,2.319 -10.053,0.256 -10.87,-1.716 -11.318,-2.768 -11.792,-3.964 -12.292,-5.304 -7.26,-4.568 -3.162,-2.8 0,0 m -12.806,5.297 c 5.217,5.475 10.605,8.213 16.166,8.213 2.055,0 3.689,-0.473 4.901,-1.42 1.212,-0.947 1.818,-2.354 1.818,-4.221 0,-3.787 -2.22,-7.029 -6.66,-9.725 -4.44,-2.696 -9.111,-4.346 -14.012,-4.951 l -2.253,-0.276 c -0.343,-1.08 -0.58,-1.943 -0.711,-2.589 -0.132,-0.646 -0.198,-1.456 -0.198,-2.431 0,-2.318 0.757,-4.124 2.273,-5.415 1.514,-1.291 3.313,-1.936 5.395,-1.936 1.976,0 4.071,0.658 6.285,1.976 1.265,0.764 3.096,2.135 5.493,4.111 l 1.028,-0.91 c -1.185,-1.502 -2.885,-3.043 -5.098,-4.624 -3.927,-2.82 -7.866,-4.229 -11.819,-4.229 -2.793,0 -5.244,0.987 -7.351,2.961 -2.109,1.974 -3.162,4.804 -3.162,8.489 0,5.844 2.634,11.503 7.905,16.977"
             style="fill:#dc143c;fill-opacity:1;fill-rule:nonzero;stroke:none"
             id="path94"
             inkscape:connector-curvature="0" />
        </g>
        <g
           id="g96"
           transform="translate(105.4656,22.4332)">
          <path
             d="m 0,0 c 0.12,-0.907 0.185,-1.87 0.185,-2.897 0,-3.825 -0.852,-6.82 -2.556,-8.988 -1.703,-2.167 -3.992,-3.25 -6.866,-3.25 -1.901,0 -3.552,0.492 -4.954,1.477 -1.403,0.985 -2.481,2.405 -3.234,4.259 -0.753,1.854 -1.129,4.021 -1.129,6.502 0,2.503 0.382,4.693 1.147,6.571 0.765,1.877 1.854,3.296 3.268,4.259 1.413,0.961 3.047,1.442 4.902,1.442 1.53,0 2.889,-0.315 4.088,-0.926 0.312,0.818 0.626,1.579 0.952,2.251 0.637,1.448 1.374,2.994 2.144,4.523 -2.177,0.77 -4.565,1.175 -7.184,1.175 -2.828,0 -5.412,-0.458 -7.753,-1.373 -2.342,-0.916 -4.335,-2.22 -5.98,-3.911 -1.646,-1.692 -2.909,-3.732 -3.79,-6.119 -0.881,-2.388 -1.321,-5.019 -1.321,-7.892 0,-2.851 0.435,-5.453 1.304,-7.806 0.869,-2.352 2.144,-4.392 3.825,-6.118 1.68,-1.727 3.667,-3.054 5.962,-3.981 2.295,-0.927 4.879,-1.391 7.753,-1.391 2.897,0 5.504,0.458 7.823,1.374 2.317,0.915 4.311,2.23 5.979,3.946 1.669,1.714 2.943,3.766 3.825,6.153 0.88,2.387 1.321,4.995 1.321,7.823 0,2.851 -0.435,5.458 -1.304,7.822 C 7.538,7.289 6.269,9.329 4.6,11.044 4.594,11.051 4.586,11.057 4.579,11.064 4.103,10.166 3.677,9.333 3.328,8.605 2.555,6.995 1.21,3.34 0,0"
             style="fill:#333c42;fill-opacity:1;fill-rule:nonzero;stroke:none"
             id="path98"
             inkscape:connector-curvature="0" />
        </g>
        <g
           id="g100"
           transform="translate(116.2113,49.4528)">
          <path
             d="m 0,0 c -2.853,0 -4.536,-1.476 -6.193,-3.688 -1.277,-1.703 -3.254,-5.125 -5.075,-8.729 -0.777,-1.539 -1.526,-3.11 -2.179,-4.595 -0.346,-0.712 -0.688,-1.56 -1.03,-2.475 -1.182,-3.152 -2.38,-7.131 -3.887,-9.368 -0.907,0.477 -1.765,2.908 -2.241,3.387 -1.102,1.113 -1.861,2.546 -3.123,2.546 -0.43,0 -0.917,-0.166 -1.497,-0.568 -2.28,-1.58 -1.713,-3.014 -0.614,-5.111 1.014,-1.935 1.925,-2.844 3.049,-4.719 1.072,-1.791 2.546,-4.086 4.726,-4.086 0.1,0 0.202,0.005 0.305,0.015 2.237,0.216 2.139,2.069 2.883,3.921 0.734,1.829 2.124,5.789 3.451,9.399 0.966,2.629 1.899,5.074 2.521,6.37 0.412,0.859 0.916,1.84 1.484,2.901 2.462,4.596 6.122,10.673 8.695,14.711 C 0.825,-0.029 0.401,0 0,0"
             style="fill:#dc143c;fill-opacity:1;fill-rule:nonzero;stroke:none"
             id="path102"
             inkscape:connector-curvature="0" />
        </g>
      </g>
    </g>
  </g>
</svg>
